<svg xmlns="http://www.w3.org/2000/svg" width="35" height="87" fill="none"><g clip-path="url('#clip0_248_127')"><path fill="#1D1B20" d="M5.833 81.167a2.8 2.8 0 0 1-2.06-.857 2.8 2.8 0 0 1-.856-2.06v-17.5q0-1.203.856-2.06a2.8 2.8 0 0 1 2.06-.857h23.334q1.203 0 2.06.857.855.857.856 2.06v17.5q0 1.203-.856 2.06a2.8 2.8 0 0 1-2.06.857zM17.5 70.958 5.833 63.667V78.25h23.334V63.667zm0-2.916 11.667-7.292H5.833zM5.833 63.667V60.75v17.5z"/></g><defs><clipPath id="clip0_248_127"><path fill="#fff" d="M0 0h35v87H0z"/></clipPath></defs></svg>