<svg xmlns="http://www.w3.org/2000/svg" width="35" height="36" fill="none"><g clip-path="url('#clip0_238_115')"><path fill="url('#paint0_linear_238_115')" d="M.747 17.426c0 2.963.773 5.857 2.246 8.408L.606 34.548l8.919-2.338a16.8 16.8 0 0 0 8.039 2.047h.007c9.272 0 16.819-7.545 16.823-16.818A16.71 16.71 0 0 0 29.47 5.54 16.72 16.72 0 0 0 17.57.609C8.297.609.75 8.153.746 17.426"/><path fill="url('#paint1_linear_238_115')" d="M.146 17.42a17.4 17.4 0 0 0 2.326 8.71L0 35.157l9.238-2.422a17.4 17.4 0 0 0 8.328 2.12h.007c9.604 0 17.423-7.816 17.427-17.42a17.32 17.32 0 0 0-5.1-12.326A17.32 17.32 0 0 0 17.573 0C7.967 0 .15 7.815.146 17.42m5.502 8.255-.345-.548a14.44 14.44 0 0 1-2.214-7.706c.003-7.983 6.5-14.479 14.49-14.479 3.869.002 7.505 1.51 10.24 4.247a14.4 14.4 0 0 1 4.239 10.244c-.004 7.984-6.501 14.48-14.485 14.48h-.006c-2.599-.002-5.148-.7-7.372-2.019l-.529-.313-5.482 1.437z"/><path fill="#fff" d="M13.218 10.137c-.326-.725-.67-.74-.98-.752-.254-.01-.544-.01-.835-.01s-.762.11-1.16.545c-.4.435-1.525 1.489-1.525 3.631s1.56 4.213 1.778 4.504 3.012 4.827 7.438 6.572c3.679 1.45 4.427 1.162 5.226 1.09.798-.073 2.576-1.054 2.939-2.07.363-1.017.363-1.889.254-2.07-.11-.182-.4-.291-.835-.509-.436-.217-2.576-1.271-2.975-1.416-.4-.146-.69-.218-.98.218-.29.435-1.124 1.416-1.379 1.706s-.508.328-.943.11c-.436-.219-1.838-.678-3.502-2.161-1.294-1.154-2.168-2.58-2.422-3.016s-.027-.671.19-.888c.197-.195.437-.508.654-.763.218-.254.29-.435.435-.726.146-.29.073-.545-.036-.762-.109-.218-.955-2.372-1.342-3.233"/></g><defs><linearGradient id="paint0_linear_238_115" x1="1689.99" x2="1689.99" y1="3394.58" y2=".609" gradientUnits="userSpaceOnUse"><stop stop-color="#1FAF38"/><stop offset="1" stop-color="#60D669"/></linearGradient><linearGradient id="paint1_linear_238_115" x1="1750" x2="1750" y1="3515.68" y2="0" gradientUnits="userSpaceOnUse"><stop stop-color="#F9F9F9"/><stop offset="1" stop-color="#fff"/></linearGradient><clipPath id="clip0_238_115"><path fill="#fff" d="M0 0h35v35.273H0z"/></clipPath></defs></svg>