<svg xmlns="http://www.w3.org/2000/svg" width="38" height="38" fill="none"><g clip-path="url('#clip0_56_19')"><path fill="url('#paint0_linear_56_19')" d="M19.026 37.888c10.371 0 18.778-8.407 18.778-18.778S29.397.332 19.026.332.248 8.739.248 19.11s8.407 18.778 18.778 18.778"/><path fill="#fff" fill-rule="evenodd" d="M8.748 18.911q8.212-3.577 10.951-4.717c5.215-2.169 6.299-2.545 7.005-2.558.155-.003.502.036.727.218.19.155.243.363.268.509s.056.48.031.74c-.282 2.969-1.505 10.174-2.127 13.5-.264 1.407-.782 1.879-1.284 1.925-1.09.1-1.918-.72-2.974-1.413-1.653-1.083-2.587-1.758-4.191-2.815-1.854-1.222-.652-1.893.404-2.99.277-.288 5.082-4.658 5.175-5.055.011-.05.022-.234-.088-.332-.11-.097-.272-.064-.389-.037q-.247.056-7.92 5.235-1.124.772-2.037.752c-.67-.014-1.96-.379-2.919-.69-1.176-.383-2.11-.585-2.029-1.234q.064-.507 1.397-1.038" clip-rule="evenodd"/></g><defs><linearGradient id="paint0_linear_56_19" x1="19.026" x2="19.026" y1=".332" y2="37.609" gradientUnits="userSpaceOnUse"><stop stop-color="#2AABEE"/><stop offset="1" stop-color="#229ED9"/></linearGradient><clipPath id="clip0_56_19"><path fill="#fff" d="M.248.332h37.556v37.556H.248z"/></clipPath></defs></svg>