<svg xmlns="http://www.w3.org/2000/svg" width="50" height="50" fill="none"><g clip-path="url('#clip0_109_65')"><path fill="#FF0302" d="M49.004 12.886a6.28 6.28 0 0 0-4.42-4.448C40.674 7.386 25.05 7.386 25.05 7.386s-15.625 0-19.534 1.051a6.28 6.28 0 0 0-4.42 4.45C.05 16.811.05 25 .05 25s0 8.188 1.045 12.114a6.28 6.28 0 0 0 4.42 4.449c3.91 1.05 19.535 1.05 19.535 1.05s15.625 0 19.534-1.05a6.28 6.28 0 0 0 4.42-4.45C50.05 33.189 50.05 25 50.05 25s0-8.187-1.046-12.114"/><path fill="#FEFEFE" d="M19.936 32.435v-14.87L33.004 25z"/></g><defs><clipPath id="clip0_109_65"><path fill="#fff" d="M0 0h50v50H0z"/></clipPath></defs></svg>