<svg xmlns="http://www.w3.org/2000/svg" width="30" height="30" fill="none"><g clip-path="url('#clip0_110_15')"><path fill="url('#paint0_linear_110_15')" d="M15 30c8.284 0 15-6.716 15-15S23.284 0 15 0 0 6.716 0 15s6.716 15 15 15"/><path fill="#fff" fill-rule="evenodd" d="M6.79 14.842q6.56-2.857 8.748-3.768c4.165-1.733 5.03-2.034 5.595-2.044.124-.002.402.029.581.175.152.123.194.289.214.406.02.116.045.382.025.59-.226 2.372-1.203 8.128-1.7 10.784-.21 1.125-.624 1.501-1.025 1.538-.87.08-1.532-.575-2.376-1.128-1.32-.866-2.066-1.404-3.347-2.249-1.481-.976-.521-1.512.323-2.389.22-.23 4.059-3.72 4.133-4.037.01-.04.018-.187-.07-.265s-.217-.052-.31-.03q-.2.045-6.328 4.182-.897.616-1.626.6c-.536-.011-1.566-.302-2.332-.551-.94-.306-1.686-.467-1.621-.986q.051-.405 1.116-.828" clip-rule="evenodd"/></g><defs><linearGradient id="paint0_linear_110_15" x1="15" x2="15" y1="0" y2="29.777" gradientUnits="userSpaceOnUse"><stop stop-color="#2AABEE"/><stop offset="1" stop-color="#229ED9"/></linearGradient><clipPath id="clip0_110_15"><path fill="#fff" d="M0 0h30v30H0z"/></clipPath></defs></svg>