<svg xmlns="http://www.w3.org/2000/svg" width="39" height="38" fill="none"><g clip-path="url('#clip0_56_21')"><path fill="#FF0302" d="M37.388 10.01a4.72 4.72 0 0 0-3.32-3.34c-2.937-.79-14.673-.79-14.673-.79s-11.736 0-14.672.79a4.72 4.72 0 0 0-3.32 3.34c-.786 2.95-.786 9.1-.786 9.1s0 6.15.785 9.098a4.72 4.72 0 0 0 3.32 3.342c2.937.79 14.673.79 14.673.79s11.736 0 14.673-.79a4.72 4.72 0 0 0 3.32-3.342c.785-2.949.785-9.098.785-9.098s0-6.15-.785-9.1"/><path fill="#FEFEFE" d="M15.554 24.694V13.525l9.816 5.585z"/></g><defs><clipPath id="clip0_56_21"><path fill="#fff" d="M.58.332h37.556v37.556H.58z"/></clipPath></defs></svg>