<svg xmlns="http://www.w3.org/2000/svg" width="30" height="30" fill="none"><path fill="#25D366" d="m0 30 2.119-7.704a14.8 14.8 0 0 1-1.993-7.432C.129 6.669 6.83 0 15.063 0a14.88 14.88 0 0 1 10.566 4.36A14.74 14.74 0 0 1 30 14.877c-.004 8.197-6.704 14.865-14.937 14.865a15 15 0 0 1-7.144-1.81zm8.286-4.759c2.105 1.244 4.114 1.989 6.772 1.99 6.842 0 12.416-5.542 12.42-12.356.002-6.828-5.545-12.362-12.41-12.365-6.848 0-12.418 5.543-12.42 12.355-.002 2.781.817 4.864 2.192 7.042l-1.254 4.56zm14.301-6.83c-.093-.155-.341-.247-.716-.434-.373-.186-2.208-1.085-2.55-1.208-.342-.124-.59-.186-.84.186-.25.371-.965 1.209-1.183 1.456-.217.248-.435.279-.808.093s-1.577-.578-3.002-1.844c-1.11-.985-1.859-2.201-2.076-2.574-.218-.371-.023-.572.163-.757.168-.167.373-.434.56-.652.19-.214.251-.37.377-.618.124-.248.063-.465-.032-.651-.094-.185-.84-2.014-1.15-2.758-.304-.724-.612-.626-.84-.638L9.774 8a1.37 1.37 0 0 0-.995.465c-.341.373-1.306 1.27-1.306 3.099s1.338 3.595 1.523 3.842c.188.248 2.632 4 6.376 5.609.89.383 1.586.611 2.127.782.895.283 1.709.243 2.352.148.717-.106 2.207-.899 2.519-1.766.311-.869.311-1.613.217-1.768"/></svg>