<svg xmlns="http://www.w3.org/2000/svg" width="46" height="35" fill="none"><path fill="#F5F5F5" d="m44.454 29.881-8.617-6.717c-.389-.303-.916-.472-1.469-.472H32.96c2.386-2.378 3.803-5.37 3.803-8.623 0-7.741-8.046-14.014-17.976-14.014S.81 6.328.81 14.07s8.046 14.013 17.976 14.013c4.174 0 8.012-1.105 11.062-2.964v1.098c0 .431.216.842.605 1.145l8.617 6.717c.812.634 2.126.634 2.93 0l2.445-1.906c.812-.633.812-1.657.009-2.29m-25.668-7.189c-6.11 0-11.062-3.853-11.062-8.623 0-4.764 4.944-8.624 11.062-8.624 6.11 0 11.062 3.854 11.062 8.624 0 4.763-4.943 8.623-11.062 8.623"/></svg>