<svg width="35" height="87" viewBox="0 0 35 87" fill="none" xmlns="http://www.w3.org/2000/svg">
<g clip-path="url(#clip0_248_127)">
<path d="M5.83329 81.1666C5.03121 81.1666 4.34458 80.881 3.7734 80.3099C3.20222 79.7387 2.91663 79.0521 2.91663 78.25V60.75C2.91663 59.9479 3.20222 59.2613 3.7734 58.6901C4.34458 58.1189 5.03121 57.8333 5.83329 57.8333H29.1666C29.9687 57.8333 30.6553 58.1189 31.2265 58.6901C31.7977 59.2613 32.0833 59.9479 32.0833 60.75V78.25C32.0833 79.0521 31.7977 79.7387 31.2265 80.3099C30.6553 80.881 29.9687 81.1666 29.1666 81.1666H5.83329ZM17.5 70.9583L5.83329 63.6666V78.25H29.1666V63.6666L17.5 70.9583ZM17.5 68.0416L29.1666 60.75H5.83329L17.5 68.0416ZM5.83329 63.6666V60.75V78.25V63.6666Z" fill="#1D1B20"/>
</g>
<defs>
<clipPath id="clip0_248_127">
<rect width="35" height="87" fill="white"/>
</clipPath>
</defs>
</svg>
