<svg width="35" height="36" viewBox="0 0 35 36" fill="none" xmlns="http://www.w3.org/2000/svg">
<g clip-path="url(#clip0_238_115)">
<path d="M0.746899 17.4256C0.746079 20.3893 1.52045 23.2831 2.99292 25.8337L0.606079 34.5484L9.52452 32.21C11.9912 33.5528 14.755 34.2565 17.5636 34.2567H17.571C26.8425 34.2567 34.3898 26.7121 34.3938 17.4389C34.3956 12.9454 32.6472 8.71992 29.4707 5.54094C26.2947 2.36223 22.0708 0.610724 17.5703 0.608673C8.2976 0.608673 0.750864 8.15281 0.747036 17.4256" fill="url(#paint0_linear_238_115)"/>
<path d="M0.146289 17.4202C0.145332 20.4904 0.947461 23.4877 2.47242 26.1297L0 35.1568L9.23822 32.7346C11.7837 34.1224 14.6496 34.8541 17.5658 34.8552H17.5733C27.1775 34.8552 34.9959 27.0393 35 17.4341C35.0016 12.7791 33.1904 8.40178 29.9004 5.10891C26.61 1.81645 22.235 0.00191406 17.5733 0C7.96742 0 0.150117 7.81484 0.146289 17.4202ZM5.64799 25.6747L5.30305 25.1271C3.85301 22.8215 3.08766 20.1571 3.08875 17.4213C3.09176 9.43756 9.58918 2.94219 17.5788 2.94219C21.4479 2.94383 25.0841 4.45211 27.819 7.18867C30.5538 9.92551 32.0586 13.5636 32.0577 17.433C32.0541 25.4167 25.5566 31.9129 17.5733 31.9129H17.5675C14.9681 31.9115 12.4187 31.2134 10.1954 29.8942L9.66629 29.5805L4.18414 31.0178L5.64799 25.6747Z" fill="url(#paint1_linear_238_115)"/>
<path d="M13.2177 10.1374C12.8915 9.4124 12.5482 9.39777 12.2379 9.38505C11.9839 9.37412 11.6935 9.37494 11.4034 9.37494C11.113 9.37494 10.6412 9.48418 10.2424 9.91963C9.84318 10.3555 8.71826 11.4088 8.71826 13.551C8.71826 15.6933 10.2786 17.7637 10.4962 18.0545C10.7139 18.3448 13.5085 22.8817 17.9343 24.627C21.6126 26.0775 22.3612 25.789 23.1595 25.7162C23.9579 25.6438 25.7358 24.6632 26.0985 23.6465C26.4615 22.6298 26.4615 21.7584 26.3527 21.5763C26.2438 21.3948 25.9534 21.2859 25.518 21.0682C25.0825 20.8506 22.9417 19.797 22.5426 19.6517C22.1434 19.5065 21.8531 19.434 21.5627 19.87C21.2723 20.3053 20.4385 21.2859 20.1843 21.5763C19.9304 21.8673 19.6763 21.9036 19.241 21.6858C18.8052 21.4673 17.4029 21.0081 15.7392 19.5248C14.4447 18.3706 13.5708 16.9453 13.3168 16.5093C13.0628 16.074 13.2896 15.838 13.5079 15.6211C13.7036 15.426 13.9435 15.1126 14.1614 14.8585C14.3786 14.6042 14.451 14.4227 14.5962 14.1323C14.7415 13.8417 14.6688 13.5874 14.5601 13.3696C14.451 13.1518 13.6049 10.9983 13.2177 10.1374Z" fill="white"/>
</g>
<defs>
<linearGradient id="paint0_linear_238_115" x1="1689.99" y1="3394.58" x2="1689.99" y2="0.608673" gradientUnits="userSpaceOnUse">
<stop stop-color="#1FAF38"/>
<stop offset="1" stop-color="#60D669"/>
</linearGradient>
<linearGradient id="paint1_linear_238_115" x1="1750" y1="3515.68" x2="1750" y2="0" gradientUnits="userSpaceOnUse">
<stop stop-color="#F9F9F9"/>
<stop offset="1" stop-color="white"/>
</linearGradient>
<clipPath id="clip0_238_115">
<rect width="35" height="35.2734" fill="white"/>
</clipPath>
</defs>
</svg>
