<svg width="29" height="29" viewBox="0 0 29 29" fill="none" xmlns="http://www.w3.org/2000/svg">
<path d="M4.69455 23.4726C4.04905 23.4726 3.49647 23.2428 3.0368 22.7831C2.57713 22.3234 2.34729 21.7708 2.34729 21.1253V7.04178C2.34729 6.39628 2.57713 5.8437 3.0368 5.38403C3.49647 4.92435 4.04905 4.69452 4.69455 4.69452H23.4726C24.1181 4.69452 24.6707 4.92435 25.1304 5.38403C25.59 5.8437 25.8199 6.39628 25.8199 7.04178V21.1253C25.8199 21.7708 25.59 22.3234 25.1304 22.7831C24.6707 23.2428 24.1181 23.4726 23.4726 23.4726H4.69455ZM14.0836 15.2572L4.69455 9.38904V21.1253H23.4726V9.38904L14.0836 15.2572ZM14.0836 12.9099L23.4726 7.04178H4.69455L14.0836 12.9099ZM4.69455 9.38904V7.04178V21.1253V9.38904Z" fill="#1D1B20"/>
</svg>
