<svg width="29" height="28" viewBox="0 0 29 28" fill="none" xmlns="http://www.w3.org/2000/svg">
<path d="M23.3346 23.4636L16.063 16.192C15.4824 16.6867 14.8146 17.0695 14.0599 17.3405C13.3051 17.6114 12.5464 17.7469 11.7838 17.7469C9.92433 17.7469 8.35048 17.1032 7.06229 15.8158C5.7741 14.5284 5.13 12.9549 5.13 11.0954C5.13 9.23586 5.77332 7.66162 7.05997 6.37266C8.34661 5.0837 9.91968 4.43844 11.7792 4.43689C13.6387 4.43534 15.2133 5.07944 16.5031 6.36918C17.7928 7.65891 18.4377 9.23315 18.4377 11.0919C18.4377 11.8986 18.2948 12.6793 18.0092 13.4341C17.7235 14.1889 17.3481 14.8345 16.8828 15.371L24.1544 22.6415L23.3346 23.4636ZM11.785 16.5845C13.3256 16.5845 14.6261 16.0542 15.6867 14.9936C16.7473 13.933 17.2776 12.6321 17.2776 11.0907C17.2776 9.54939 16.7473 8.24882 15.6867 7.189C14.6261 6.12919 13.3256 5.59889 11.785 5.59812C10.2444 5.59735 8.94348 6.12764 7.88212 7.189C6.82075 8.25037 6.29046 9.55094 6.29123 11.0907C6.29201 12.6305 6.8223 13.9311 7.88212 14.9925C8.94193 16.0538 10.2425 16.5841 11.7838 16.5833" fill="black"/>
</svg>
