<svg width="18" height="18" viewBox="0 0 18 18" fill="none" xmlns="http://www.w3.org/2000/svg">
<path d="M14.6137 15.1155L9.91721 10.419C9.54221 10.7385 9.11096 10.9858 8.62346 11.1608C8.13596 11.3358 7.64596 11.4233 7.15346 11.4233C5.95246 11.4233 4.93596 11.0075 4.10396 10.176C3.27196 9.34453 2.85596 8.32828 2.85596 7.12728C2.85596 5.92628 3.27146 4.90953 4.10246 4.07703C4.93346 3.24453 5.94946 2.82778 7.15046 2.82678C8.35146 2.82578 9.36846 3.24178 10.2015 4.07478C11.0345 4.90778 11.451 5.92453 11.451 7.12503C11.451 7.64603 11.3587 8.15028 11.1742 8.63778C10.9897 9.12528 10.7472 9.54228 10.4467 9.88878L15.1432 14.5845L14.6137 15.1155ZM7.15421 10.6725C8.14921 10.6725 8.98921 10.33 9.67421 9.64503C10.3592 8.96003 10.7017 8.11978 10.7017 7.12428C10.7017 6.12878 10.3592 5.28878 9.67421 4.60428C8.98921 3.91978 8.14921 3.57728 7.15421 3.57678C6.15921 3.57628 5.31896 3.91878 4.63346 4.60428C3.94796 5.28978 3.60546 6.12978 3.60596 7.12428C3.60646 8.11878 3.94896 8.95878 4.63346 9.64428C5.31796 10.3298 6.15796 10.6723 7.15346 10.6718" fill="black"/>
</svg>
