<svg width="38" height="38" viewBox="0 0 38 38" fill="none" xmlns="http://www.w3.org/2000/svg">
<path d="M24.4169 22.1593H23.1938L22.7602 21.7412C24.3301 19.9205 25.1929 17.596 25.1911 15.1919C25.1911 13.2014 24.6008 11.2557 23.495 9.60067C22.3891 7.94565 20.8174 6.65573 18.9784 5.89401C17.1395 5.13229 15.1159 4.93299 13.1637 5.32131C11.2115 5.70963 9.41826 6.66813 8.01079 8.07561C6.60331 9.48308 5.64481 11.2763 5.25649 13.2285C4.86817 15.1807 5.06747 17.2043 5.82919 19.0432C6.59091 20.8822 7.88083 22.454 9.53585 23.5598C11.1909 24.6656 13.1366 25.2559 15.1271 25.2559C17.6199 25.2559 19.9114 24.3424 21.6764 22.8251L22.0945 23.2586V24.4817L29.836 32.2078L32.143 29.9008L24.4169 22.1593ZM15.1271 22.1593C11.2718 22.1593 8.15972 19.0472 8.15972 15.1919C8.15972 11.3366 11.2718 8.22454 15.1271 8.22454C18.9824 8.22454 22.0945 11.3366 22.0945 15.1919C22.0945 19.0472 18.9824 22.1593 15.1271 22.1593Z" fill="#999494"/>
</svg>
