<svg width="38" height="38" viewBox="0 0 38 38" fill="none" xmlns="http://www.w3.org/2000/svg">
<g clip-path="url(#clip0_56_19)">
<path d="M19.0262 37.8877C29.397 37.8877 37.8043 29.4805 37.8043 19.1096C37.8043 8.7388 29.397 0.331573 19.0262 0.331573C8.65534 0.331573 0.248108 8.7388 0.248108 19.1096C0.248108 29.4805 8.65534 37.8877 19.0262 37.8877Z" fill="url(#paint0_linear_56_19)"/>
<path fill-rule="evenodd" clip-rule="evenodd" d="M8.74813 18.9114C14.2223 16.5264 17.8726 14.9541 19.6991 14.1944C24.914 12.0253 25.9976 11.6486 26.7038 11.6361C26.8592 11.6334 27.2065 11.6719 27.4315 11.8544C27.6215 12.0086 27.6737 12.2168 27.6987 12.363C27.7238 12.5091 27.7549 12.8421 27.7301 13.1022C27.4476 16.0715 26.2248 23.2771 25.6027 26.6027C25.3395 28.0099 24.8212 28.4817 24.3194 28.5279C23.2289 28.6282 22.4008 27.8072 21.3447 27.1149C19.6919 26.0315 18.7583 25.3571 17.154 24.2999C15.3 23.0782 16.5019 22.4067 17.5585 21.3093C17.835 21.0221 22.6397 16.6518 22.7326 16.2554C22.7443 16.2058 22.7551 16.021 22.6453 15.9234C22.5355 15.8258 22.3734 15.8592 22.2565 15.8857C22.0907 15.9234 19.4505 17.6684 14.3358 21.121C13.5864 21.6356 12.9076 21.8864 12.2994 21.8732C11.6289 21.8587 10.3392 21.4941 9.3804 21.1825C8.20442 20.8002 7.26978 20.5981 7.35116 19.9489C7.39355 19.6107 7.85921 19.2649 8.74813 18.9114Z" fill="white"/>
</g>
<defs>
<linearGradient id="paint0_linear_56_19" x1="19.0262" y1="0.331573" x2="19.0262" y2="37.6092" gradientUnits="userSpaceOnUse">
<stop stop-color="#2AABEE"/>
<stop offset="1" stop-color="#229ED9"/>
</linearGradient>
<clipPath id="clip0_56_19">
<rect width="37.5561" height="37.5561" fill="white" transform="translate(0.248108 0.331573)"/>
</clipPath>
</defs>
</svg>
