<svg width="50" height="50" viewBox="0 0 50 50" fill="none" xmlns="http://www.w3.org/2000/svg">
<g clip-path="url(#clip0_109_65)">
<path d="M49.0042 12.8864C48.7215 11.8226 48.1644 10.8518 47.3887 10.0711C46.6129 9.29031 45.6457 8.72699 44.5838 8.4375C40.6747 7.38637 25.0497 7.38637 25.0497 7.38637C25.0497 7.38637 9.42468 7.38637 5.51559 8.4375C4.4537 8.72699 3.48647 9.29031 2.7107 10.0711C1.93492 10.8518 1.37782 11.8226 1.09514 12.8864C0.0496827 16.8125 0.0496826 25 0.0496826 25C0.0496826 25 0.0496827 33.1875 1.09514 37.1136C1.37782 38.1774 1.93492 39.1482 2.7107 39.9289C3.48647 40.7097 4.4537 41.273 5.51559 41.5625C9.42468 42.6136 25.0497 42.6136 25.0497 42.6136C25.0497 42.6136 40.6747 42.6136 44.5838 41.5625C45.6457 41.273 46.6129 40.7097 47.3887 39.9289C48.1644 39.1482 48.7215 38.1774 49.0042 37.1136C50.0497 33.1875 50.0497 25 50.0497 25C50.0497 25 50.0497 16.8125 49.0042 12.8864Z" fill="#FF0302"/>
<path d="M19.936 32.4347V17.5654L33.0042 25.0001L19.936 32.4347Z" fill="#FEFEFE"/>
</g>
<defs>
<clipPath id="clip0_109_65">
<rect width="50" height="50" fill="white"/>
</clipPath>
</defs>
</svg>
