<svg width="39" height="38" viewBox="0 0 39 38" fill="none" xmlns="http://www.w3.org/2000/svg">
<g clip-path="url(#clip0_56_21)">
<path d="M37.3879 10.0108C37.1755 9.21177 36.7571 8.48256 36.1744 7.89612C35.5917 7.30967 34.8652 6.88655 34.0676 6.66911C31.1313 5.87958 19.395 5.87958 19.395 5.87958C19.395 5.87958 7.65875 5.87958 4.72254 6.66911C3.92494 6.88655 3.19843 7.30967 2.61572 7.89612C2.03302 8.48256 1.61457 9.21177 1.40224 10.0108C0.616974 12.9598 0.616974 19.1096 0.616974 19.1096C0.616974 19.1096 0.616974 25.2594 1.40224 28.2084C1.61457 29.0074 2.03302 29.7366 2.61572 30.323C3.19843 30.9095 3.92494 31.3326 4.72254 31.5501C7.65875 32.3396 19.395 32.3396 19.395 32.3396C19.395 32.3396 31.1313 32.3396 34.0676 31.5501C34.8652 31.3326 35.5917 30.9095 36.1744 30.323C36.7571 29.7366 37.1755 29.0074 37.3879 28.2084C38.1731 25.2594 38.1731 19.1096 38.1731 19.1096C38.1731 19.1096 38.1731 12.9598 37.3879 10.0108Z" fill="#FF0302"/>
<path d="M15.5541 24.694V13.5253L25.3699 19.1096L15.5541 24.694Z" fill="#FEFEFE"/>
</g>
<defs>
<clipPath id="clip0_56_21">
<rect width="37.5561" height="37.5561" fill="white" transform="translate(0.579712 0.331512)"/>
</clipPath>
</defs>
</svg>
