<svg width="46" height="35" viewBox="0 0 46 35" fill="none" xmlns="http://www.w3.org/2000/svg">
<path d="M44.4537 29.8812L35.8374 23.1641C35.4485 22.8609 34.9213 22.6925 34.3682 22.6925H32.9595C35.3448 20.3142 36.7621 17.3229 36.7621 14.0687C36.7621 6.32759 28.7162 0.0551758 18.7863 0.0551758C8.85634 0.0551758 0.810425 6.32759 0.810425 14.0687C0.810425 21.8099 8.85634 28.0823 18.7863 28.0823C22.9604 28.0823 26.7976 26.9774 29.8483 25.1179V26.2161C29.8483 26.6473 30.0644 27.0582 30.4533 27.3614L39.0696 34.0785C39.8819 34.7118 41.1955 34.7118 41.9993 34.0785L44.445 32.1718C45.2574 31.5385 45.2574 30.5145 44.4537 29.8812ZM18.7863 22.6925C12.6762 22.6925 7.7242 18.8387 7.7242 14.0687C7.7242 9.30548 12.6676 5.44501 18.7863 5.44501C24.8963 5.44501 29.8483 9.29874 29.8483 14.0687C29.8483 18.832 24.9049 22.6925 18.7863 22.6925Z" fill="#F5F5F5"/>
</svg>
